<?xml version="1.0" standalone="no"?>
<!DOCTYPE svg PUBLIC "-//W3C//DTD SVG 20010904//EN"
 "http://www.w3.org/TR/2001/REC-SVG-20010904/DTD/svg10.dtd">
<svg version="1.0" xmlns="http://www.w3.org/2000/svg"
 width="900.000000pt" height="900.000000pt" viewBox="0 0 900.000000 900.000000"
 preserveAspectRatio="xMidYMid meet">
<metadata>
Created by potrace 1.14, written by Peter Selinger 2001-2017
</metadata>
<g transform="translate(0.000000,900.000000) scale(0.100000,-0.100000)"
fill="#000000" stroke="none">
<path d="M5010 8988 c0 -7 -4 -19 -9 -27 -8 -12 -12 -12 -25 -2 -14 12 -16 10
-16 -13 0 -14 5 -26 11 -26 5 0 7 5 4 10 -3 6 -1 10 5 10 14 0 18 11 -55 -138
-35 -72 -66 -122 -75 -123 -11 0 -11 -2 -2 -6 10 -4 10 -8 1 -19 -6 -8 -8 -14
-5 -14 4 0 2 -10 -5 -21 -9 -17 -13 -19 -20 -8 -10 15 -11 12 -14 -45 -1 -21
-7 -41 -12 -45 -8 -5 -27 -43 -89 -178 -10 -22 -23 -39 -28 -36 -5 4 -6 1 -2
-5 10 -17 -114 -263 -138 -272 -14 -5 -23 -3 -26 7 -5 11 -8 11 -25 -1 -11 -9
-27 -15 -35 -15 -10 0 -8 3 5 9 15 7 8 9 -26 7 -32 -1 -45 -6 -42 -14 4 -10
-14 -13 -68 -14 -41 0 -86 -2 -101 -4 -15 -2 -30 1 -33 6 -4 5 -11 9 -16 9 -6
0 -7 -4 -4 -10 4 -6 -13 -10 -42 -11 -26 0 -63 -2 -81 -4 -30 -3 -32 -2 -20
13 12 16 11 16 -7 0 -11 -9 -37 -21 -59 -27 l-38 -10 18 22 c19 21 19 21 0 7
-15 -11 -20 -12 -23 -3 -3 8 -11 10 -21 5 -21 -10 -32 -9 -52 3 -13 7 -13 6
-2 -7 8 -10 24 -15 43 -13 16 2 29 0 29 -4 0 -7 -61 -19 -135 -26 -11 -1 -36
-7 -55 -12 -20 -6 -45 -7 -57 -2 -15 5 -27 4 -35 -4 -22 -21 -98 -47 -98 -34
0 9 -3 8 -8 0 -4 -7 -55 -25 -113 -39 -57 -14 -109 -30 -115 -35 -7 -6 -27
-11 -46 -13 -19 -2 -46 -11 -60 -20 -14 -9 -30 -16 -34 -14 -5 1 -25 -5 -44
-14 -46 -22 -216 -89 -232 -92 -26 -6 -66 -25 -73 -35 -3 -6 -13 -11 -22 -11
-9 0 -25 -8 -36 -17 -11 -10 -17 -13 -14 -7 4 7 1 14 -7 17 -9 4 -12 0 -10
-11 3 -13 -21 -29 -91 -65 -53 -26 -100 -45 -105 -42 -6 4 -7 -1 -3 -11 4 -12
3 -15 -5 -10 -7 4 -12 3 -12 -1 0 -5 -20 -8 -45 -8 -25 1 -43 0 -40 -3 8 -8
-189 -130 -200 -123 -5 3 -17 6 -25 8 -11 1 -10 -2 3 -12 17 -12 13 -17 -42
-60 -34 -25 -61 -43 -61 -40 0 4 -12 -7 -26 -24 -14 -17 -23 -38 -20 -46 6
-16 -26 -38 -40 -27 -5 4 -6 3 -2 -2 10 -11 -28 -39 -42 -31 -5 3 -7 0 -4 -9
7 -17 -21 -33 -53 -31 -12 1 -20 -2 -17 -6 3 -5 15 -9 27 -10 15 0 17 -2 7 -6
-8 -4 -33 -21 -56 -39 -22 -19 -44 -30 -48 -26 -4 4 -6 2 -4 -3 1 -6 -6 -21
-16 -35 -10 -14 -16 -18 -13 -9 3 9 -1 16 -8 16 -8 0 -14 -3 -13 -6 2 -21 -4
-31 -19 -31 -13 0 -15 -2 -5 -8 10 -7 8 -12 -5 -25 -10 -8 -22 -17 -28 -19 -5
-2 -9 -7 -7 -11 1 -4 -5 -10 -13 -13 -8 -3 -12 -11 -8 -17 4 -6 0 -8 -11 -4
-9 4 -15 3 -12 -1 7 -11 -33 -44 -44 -37 -6 3 -7 -1 -4 -9 4 -10 1 -16 -9 -16
-9 0 -19 -5 -23 -12 -5 -7 -3 -8 6 -3 7 5 5 -3 -6 -17 -10 -14 -22 -24 -26
-21 -5 2 -8 0 -8 -4 0 -5 -6 -18 -14 -28 -12 -17 -16 -18 -32 -5 -16 14 -16
13 -5 -7 11 -21 8 -27 -11 -24 -5 0 -7 -5 -5 -12 1 -7 -6 -11 -17 -9 -10 2
-15 -1 -12 -6 3 -5 1 -22 -4 -38 -4 -16 -9 -23 -9 -16 -1 18 -21 15 -21 -4 0
-25 -38 -72 -62 -76 -12 -2 -24 -10 -26 -18 -5 -13 -3 -13 12 -1 16 13 16 11
-1 -20 -19 -33 -58 -48 -58 -22 0 6 -2 14 -6 17 -3 3 -5 -5 -5 -18 0 -18 5
-23 18 -21 23 5 23 -10 -1 -27 -10 -7 -19 -17 -20 -23 0 -5 -7 -10 -13 -10 -7
0 -13 -7 -13 -15 0 -25 -36 -70 -56 -70 -10 0 -21 -5 -24 -10 -4 -6 -3 -9 2
-8 8 3 13 -5 13 -23 0 -5 -4 -7 -10 -4 -6 3 -10 -4 -10 -17 0 -16 -3 -19 -9
-10 -7 11 -10 10 -15 -3 -8 -23 -8 -27 4 -20 17 11 11 -11 -8 -28 -10 -10 -22
-14 -26 -10 -4 4 -4 1 -1 -8 3 -8 -4 -25 -15 -37 -11 -12 -18 -22 -15 -22 3 0
-2 -14 -10 -30 -9 -17 -20 -28 -25 -25 -6 3 -7 0 -4 -8 3 -9 -4 -22 -18 -31
-14 -10 -17 -16 -8 -16 10 0 6 -8 -11 -23 -27 -22 -49 -65 -28 -51 7 4 10 3 7
-2 -2 -5 -21 -44 -41 -86 -36 -74 -55 -100 -45 -60 3 11 0 19 -7 19 -16 0 -10
-37 7 -49 12 -7 4 -12 -14 -9 -4 0 -5 -8 -3 -18 2 -10 -6 -34 -18 -52 -12 -19
-21 -37 -22 -41 0 -5 -4 -7 -9 -5 -5 1 -13 -8 -17 -21 -5 -13 -13 -21 -17 -18
-5 3 -8 -5 -8 -17 1 -16 -6 -23 -22 -25 -12 -2 -20 -7 -17 -12 3 -5 12 -7 21
-3 13 5 12 0 -2 -30 -10 -21 -22 -33 -28 -30 -6 4 -6 0 1 -8 10 -12 9 -20 -2
-36 -8 -11 -11 -24 -7 -28 4 -5 1 -5 -6 -1 -7 4 -10 11 -7 16 3 5 1 12 -5 15
-8 5 -7 11 1 21 9 11 9 14 0 14 -7 0 -9 5 -5 12 4 7 3 8 -4 4 -7 -4 -12 -17
-12 -30 0 -12 -3 -26 -7 -30 -5 -4 -8 -20 -9 -35 0 -15 -3 -32 -7 -38 -8 -12
10 -29 20 -19 4 3 1 6 -6 6 -7 0 -9 5 -6 10 4 6 10 8 15 5 4 -3 4 11 0 30 -8
38 3 47 19 16 12 -21 -13 -121 -29 -121 -16 0 -21 18 -5 22 13 2 13 5 -2 14
-17 10 -19 6 -21 -47 -2 -37 1 -59 8 -59 6 0 5 -12 -4 -34 -8 -19 -12 -36 -10
-39 3 -2 -2 -24 -10 -48 -8 -24 -20 -73 -26 -109 -16 -91 -31 -140 -42 -134
-6 4 -6 10 0 16 13 13 3 48 -14 48 -10 0 -11 -6 -4 -25 5 -14 7 -25 3 -25 -3
0 2 -9 11 -19 12 -13 14 -21 6 -26 -5 -3 -8 -10 -5 -15 3 -4 -3 -7 -11 -6 -22
1 -27 -33 -6 -42 20 -8 28 -34 8 -26 -8 3 -17 0 -22 -7 -4 -7 -3 -10 3 -6 16
10 24 -35 10 -52 -10 -12 -9 -13 2 -6 11 6 13 4 8 -9 -4 -10 -7 -21 -7 -24 0
-4 -5 0 -10 8 -6 9 -10 10 -10 3 0 -6 5 -15 10 -18 8 -5 7 -12 -2 -23 -7 -9
-8 -13 -2 -9 14 8 10 -61 -4 -75 -7 -7 -8 1 -2 26 4 21 4 36 -1 36 -5 0 -9
-13 -9 -30 0 -37 3 -46 13 -43 4 2 7 -4 7 -13 0 -9 -5 -12 -12 -8 -10 5 -10 4
-2 -5 14 -15 6 -63 -10 -54 -6 3 -6 0 2 -8 9 -9 12 -63 12 -196 0 -167 -1
-182 -17 -176 -11 4 -12 8 -5 11 7 2 12 13 12 25 0 20 -1 20 -17 4 -15 -15
-16 -21 -5 -38 7 -11 10 -29 7 -40 -4 -13 -2 -19 9 -19 9 0 16 -8 15 -17 0
-11 -3 -13 -6 -5 -6 14 -33 16 -33 2 0 -5 5 -10 10 -10 6 0 10 -22 10 -48 0
-26 6 -54 13 -61 10 -11 9 -12 -2 -6 -11 6 -13 3 -9 -13 4 -12 2 -24 -2 -27
-5 -3 -5 -18 0 -34 5 -19 4 -33 -3 -41 -9 -10 -9 -11 2 -5 11 6 13 4 8 -7 -3
-9 -3 -19 1 -22 9 -10 14 -58 5 -53 -4 3 -9 -6 -9 -19 -1 -13 2 -21 7 -18 5 3
9 12 9 20 0 9 5 12 11 8 8 -4 9 0 4 15 -4 13 -2 21 5 21 8 0 10 -16 7 -50 -3
-27 -2 -52 1 -55 4 -3 7 -16 7 -28 1 -12 5 -30 10 -40 4 -10 5 -35 2 -55 -4
-24 -3 -32 3 -22 8 12 10 12 16 -3 3 -9 4 -24 1 -32 -4 -8 -2 -17 3 -20 5 -3
8 -19 6 -35 -2 -15 0 -34 5 -41 5 -8 3 -17 -4 -21 -9 -6 -9 -8 1 -8 7 0 10 -5
7 -10 -3 -5 -2 -10 4 -10 8 0 16 -23 27 -75 1 -5 7 -28 13 -50 5 -22 11 -68
12 -102 1 -34 6 -60 10 -57 5 3 9 13 10 22 0 11 3 9 10 -7 5 -14 8 -32 7 -40
-2 -9 2 -21 10 -26 7 -6 14 -17 15 -25 2 -15 22 -68 38 -105 8 -19 37 -100 39
-110 1 -2 13 -31 27 -62 14 -32 26 -64 26 -70 0 -7 5 -13 10 -13 5 0 7 -9 4
-20 -3 -11 -2 -18 3 -15 4 3 11 -2 14 -11 10 -25 7 -36 -6 -28 -8 4 -10 3 -5
-2 5 -5 14 -9 19 -9 6 0 13 -6 16 -14 3 -8 0 -11 -7 -7 -6 4 -11 2 -11 -3 0
-6 7 -11 16 -11 9 0 14 -6 12 -12 -3 -7 4 -22 14 -32 10 -11 16 -26 13 -34 -2
-7 0 -10 5 -7 9 6 12 -2 14 -50 1 -11 6 -19 13 -18 19 4 37 -35 23 -51 -8 -10
-5 -15 11 -19 13 -4 20 -11 16 -20 -6 -17 8 -42 25 -42 8 0 12 -10 10 -28 -2
-15 1 -27 8 -27 6 0 8 5 4 12 -5 7 -3 8 5 4 7 -5 10 -15 7 -23 -3 -8 -2 -12 3
-9 12 8 43 -42 35 -56 -4 -7 -3 -8 4 -4 16 10 16 -36 0 -52 -9 -9 -7 -12 9
-12 17 0 20 5 16 23 -3 18 -1 16 13 -8 10 -16 17 -35 16 -42 -1 -6 7 -14 18
-18 11 -3 20 -10 20 -14 0 -5 14 -25 30 -46 17 -21 28 -40 25 -43 -2 -2 7 -14
21 -25 14 -11 23 -26 20 -34 -3 -8 -2 -12 3 -9 5 3 15 -2 22 -11 12 -14 12
-15 1 -9 -11 7 -12 4 -3 -11 6 -11 7 -24 3 -28 -4 -5 -1 -5 6 -1 7 4 9 13 5
19 -4 7 0 6 10 -2 9 -7 17 -19 17 -25 0 -6 -5 -4 -11 4 -9 13 -10 13 -6 0 2
-8 10 -15 18 -15 8 0 19 -7 25 -15 9 -11 8 -17 -5 -28 -9 -7 -10 -10 -3 -7 9
5 7 -6 -6 -31 -11 -22 -27 -56 -37 -76 -9 -21 -22 -35 -28 -31 -6 4 -7 1 -2
-6 10 -18 -75 -191 -95 -192 -43 -3 -50 -5 -50 -11 0 -33 1 -37 15 -32 8 4 12
10 9 15 -3 5 2 9 10 9 9 0 16 -5 16 -11 0 -17 -40 -79 -51 -79 -6 0 -7 -5 -3
-11 8 -14 -26 -90 -37 -83 -5 3 -6 -1 -3 -9 5 -14 -32 -96 -49 -108 -5 -3 -8
-9 -7 -13 4 -14 -23 -66 -31 -60 -5 3 -6 -2 -3 -11 7 -17 -20 -63 -48 -83 -10
-7 -18 -19 -18 -25 0 -7 7 -3 15 7 21 28 19 14 -7 -39 -15 -32 -25 -41 -31
-32 -6 8 -7 6 -3 -6 3 -10 -8 -44 -26 -80 -18 -34 -32 -64 -33 -67 -5 -28 -47
-100 -55 -95 -8 5 -7 11 1 21 6 8 9 17 5 21 -3 3 -6 1 -6 -5 0 -6 -8 -9 -18
-7 -11 2 -19 -3 -19 -10 0 -8 5 -11 10 -8 6 3 8 -7 5 -25 -2 -17 -1 -29 4 -26
4 3 8 -2 8 -11 0 -10 -5 -13 -12 -9 -6 4 -8 3 -5 -4 8 -12 -76 -185 -85 -176
-3 3 -6 -1 -5 -8 1 -33 -4 -48 -17 -48 -9 0 -12 -7 -9 -20 5 -20 14 -20 813
-20 l807 0 33 75 c19 43 37 72 43 68 6 -4 7 -1 2 6 -9 15 95 262 107 255 4 -3
5 1 2 9 -3 8 2 21 10 30 8 8 13 17 10 20 -9 8 19 57 32 57 8 0 11 6 7 16 -5
14 -3 14 15 3 11 -7 18 -17 16 -21 -3 -5 -2 -8 3 -7 19 5 63 -14 63 -28 0 -8
5 -11 10 -8 6 3 31 -5 58 -19 26 -14 71 -35 100 -47 28 -12 52 -26 52 -31 0
-5 4 -7 10 -3 5 3 17 1 27 -4 52 -28 147 -67 231 -96 34 -11 60 -24 57 -27 -4
-3 0 -6 7 -5 35 1 58 -4 58 -14 0 -5 -6 -7 -12 -3 -9 5 -9 2 1 -9 7 -9 19 -17
25 -17 6 0 5 4 -3 9 -22 14 7 24 37 12 82 -32 412 -118 487 -126 99 -12 116
-14 123 -19 5 -3 42 -8 83 -11 40 -4 81 -9 89 -12 22 -9 59 -10 54 -2 -2 4 5
5 15 2 11 -3 21 -13 24 -24 5 -18 18 -19 271 -19 216 0 268 3 272 14 3 8 20
13 42 13 93 1 123 4 119 11 -3 4 33 7 79 7 80 0 83 1 90 25 l6 25 9 -23 c5
-13 13 -21 17 -18 5 3 29 6 55 7 26 2 47 6 47 10 0 4 18 6 40 5 22 0 40 3 40
8 0 4 15 6 34 4 19 -2 33 -1 30 3 -2 4 10 12 26 18 17 5 30 16 30 23 0 10 2
10 9 -1 7 -12 19 -12 63 -3 84 17 108 29 109 54 1 17 2 19 6 6 5 -22 13 -22
82 -3 30 8 59 11 64 8 6 -3 7 -1 4 4 -7 11 85 40 110 35 14 -3 53 45 54 67 0
11 3 9 9 -6 l9 -23 47 20 c25 11 50 18 55 14 5 -3 9 -1 9 5 0 5 14 12 30 16
17 4 30 11 30 17 0 6 3 9 6 5 4 -3 19 0 35 8 34 18 42 19 34 3 -4 -7 5 2 20
20 16 19 31 29 38 25 21 -13 36 -11 30 3 -5 12 13 19 40 15 4 0 7 5 7 11 0 9
4 8 10 -2 8 -13 10 -13 10 1 0 9 9 19 20 22 11 3 20 13 20 22 0 9 4 13 10 10
5 -3 41 11 80 32 62 33 70 42 71 68 1 21 3 24 6 10 8 -31 26 -36 50 -13 12 12
27 17 34 13 8 -5 10 -4 5 3 -4 6 6 18 24 27 16 8 30 21 30 28 1 7 6 5 14 -5
12 -16 16 -15 60 6 27 13 52 29 57 37 7 11 9 11 9 1 0 -8 9 -3 23 11 12 13 40
36 62 53 22 16 45 34 51 39 6 6 40 32 77 59 37 27 69 57 72 68 4 10 9 16 13
14 4 -2 5 16 3 40 -2 27 1 44 8 44 6 0 10 -3 9 -7 -2 -5 2 -9 7 -10 6 -1 9 5
7 13 -2 8 3 14 9 14 7 0 9 3 6 7 -10 9 23 43 42 44 10 0 12 2 4 6 -7 2 -13 14
-13 24 0 14 4 18 13 13 9 -6 9 -5 0 7 -11 13 -8 20 14 40 14 13 23 18 19 12
-4 -7 -2 -13 3 -13 10 0 15 15 9 23 -4 5 29 37 37 37 3 0 3 -4 0 -10 -3 -6 1
-7 10 -3 13 4 14 8 4 14 -9 5 2 23 38 61 28 29 75 78 103 108 29 30 59 54 69
53 9 -1 11 0 3 3 -9 4 -7 13 9 35 11 16 25 26 31 23 6 -4 9 -3 5 2 -6 11 78
125 87 117 3 -4 6 0 6 8 0 18 36 50 46 41 4 -4 4 -1 0 6 -8 13 9 46 39 75 8 9
14 18 13 20 -5 6 76 107 85 107 5 0 7 6 4 14 -3 8 3 22 14 32 10 9 19 22 19
28 1 6 20 43 43 81 35 58 46 70 65 67 12 -2 22 2 22 8 0 6 -4 8 -10 5 -5 -3
-10 -1 -10 5 0 6 -5 8 -11 4 -7 -4 -4 7 7 25 10 17 22 31 27 31 4 0 5 4 2 10
-10 16 27 71 44 65 11 -4 11 -2 2 9 -9 11 -8 17 3 29 8 8 13 17 10 20 -9 9 22
48 31 39 5 -4 5 -1 1 6 -4 7 -2 19 4 27 7 8 10 15 6 15 -3 0 4 19 16 42 13 24
23 47 24 53 1 5 10 28 19 50 10 22 20 48 21 58 2 10 11 28 19 41 8 12 12 26 8
29 -3 4 2 7 13 8 10 0 14 3 8 5 -7 3 4 49 32 132 23 70 47 153 54 185 6 31 16
57 21 57 5 0 8 3 8 8 -4 23 2 52 10 48 5 -4 7 3 4 14 -3 13 0 20 8 20 10 0 11
2 2 8 -9 6 -7 25 7 77 l20 70 -3 -59 c-1 -36 2 -60 9 -63 14 -5 18 129 4 137
-9 5 4 135 26 269 9 53 18 32 27 -61 5 -46 16 -43 14 3 -1 24 -6 48 -12 52 -7
6 -6 10 3 14 6 2 12 9 12 14 0 6 -6 7 -12 3 -10 -6 -10 -4 0 7 17 19 15 28 -6
22 -11 -3 -19 1 -19 9 0 8 14 14 36 16 19 1 39 6 43 10 4 4 8 108 9 230 0 122
4 224 8 226 4 3 6 -20 6 -49 -1 -30 3 -60 8 -67 6 -9 7 -8 3 4 -3 10 -1 20 5
24 7 4 7 10 0 18 -7 9 -7 16 1 24 8 8 8 15 -2 27 -7 8 -9 15 -4 15 4 0 3 5 -4
12 -7 7 -12 17 -12 23 0 5 5 3 10 -5 6 -9 10 -10 10 -3 0 6 -5 15 -11 18 -6 4
-8 14 -4 23 3 9 3 13 -1 9 -4 -3 -20 5 -36 18 -16 14 -33 25 -37 25 -4 0 -8 7
-8 15 0 8 5 12 10 8 7 -4 5 52 -3 87 -1 3 -5 -4 -10 -15 -7 -14 -9 -5 -8 36 1
30 -2 61 -7 68 -4 7 -3 16 3 20 10 6 16 32 13 61 -1 12 -3 13 -10 1 -12 -18
-19 5 -26 84 -2 33 -9 75 -14 93 -6 19 -6 32 0 32 5 0 9 12 9 26 0 14 -4 22
-10 19 -6 -4 -7 1 -3 10 3 10 0 20 -7 25 -6 4 -18 35 -25 68 -7 34 -9 59 -4
56 13 -7 11 20 -3 53 -6 15 -11 31 -10 36 1 4 -3 7 -8 7 -16 0 -33 52 -20 60
8 5 7 9 -4 13 -9 4 -16 11 -16 17 0 6 5 8 12 4 6 -4 4 3 -5 17 -19 26 -22 43
-7 34 6 -3 10 -2 10 4 0 5 -9 13 -21 16 -11 4 -18 12 -16 18 2 7 0 20 -5 31
-8 14 -7 17 3 11 9 -6 11 0 6 24 -5 23 -3 30 5 25 6 -4 8 -3 5 3 -4 6 0 16 8
23 17 14 20 56 5 65 -6 3 -11 -5 -11 -19 -2 -39 -3 -41 -20 -59 -15 -15 -17
-14 -28 10 -10 22 -9 25 4 20 8 -4 15 -2 15 3 0 6 -5 10 -10 10 -7 0 -7 6 0
20 13 25 7 26 -16 3 -16 -17 -17 -16 -12 9 3 17 1 25 -5 21 -6 -4 -8 0 -4 10
3 9 0 18 -9 21 -8 3 -14 19 -14 36 0 16 -4 30 -8 30 -7 0 -52 91 -52 106 0 3
5 2 12 -2 11 -7 10 -4 -9 44 -3 6 0 12 6 12 6 0 11 9 11 20 0 11 -4 20 -10 20
-9 0 -14 -23 -13 -57 1 -7 -4 -13 -9 -13 -5 0 -8 10 -7 23 4 25 -8 50 -21 42
-4 -3 -10 4 -13 15 -8 32 27 46 53 20 22 -22 27 -15 7 11 -13 18 -71 24 -60 6
3 -5 0 -8 -8 -5 -8 3 -15 10 -15 16 -1 7 -3 15 -4 20 -1 4 -2 10 -1 15 0 4 -5
7 -12 7 -8 0 -7 4 3 10 13 9 13 10 -1 10 -16 0 -46 64 -41 88 2 8 -1 11 -7 8
-5 -4 -21 16 -35 44 -14 27 -23 50 -20 50 3 0 -2 7 -11 16 -9 9 -14 23 -10 31
4 11 1 13 -11 9 -11 -4 -15 -2 -11 7 3 7 -8 22 -24 33 -21 14 -30 30 -36 64
-4 25 -8 48 -9 53 -1 4 -2 10 -3 15 -1 4 -6 0 -12 -8 -8 -12 -9 -10 -4 8 4 13
2 22 -4 22 -6 0 -11 -6 -11 -12 0 -7 -5 -5 -11 6 -9 14 -8 20 2 27 12 7 11 9
-1 10 -8 1 -17 1 -21 1 -3 0 -10 8 -17 18 -9 14 -9 21 0 26 6 4 8 3 5 -3 -8
-13 36 -11 45 2 12 16 9 25 -7 25 -8 0 -15 -7 -15 -16 0 -13 -3 -14 -15 -4 -8
7 -13 16 -10 20 3 5 1 11 -5 15 -6 4 -8 10 -6 14 3 4 -1 8 -9 8 -8 0 -12 -4
-9 -9 3 -4 -1 -8 -9 -8 -18 0 -67 62 -67 84 0 9 -7 16 -15 16 -8 0 -15 3 -15
8 0 4 -13 22 -29 41 -17 19 -28 39 -25 43 3 5 0 7 -8 6 -7 -2 -14 7 -16 20 -2
12 -7 20 -11 18 -4 -3 -26 14 -49 37 -37 38 -39 43 -21 44 15 1 19 -2 15 -14
-6 -14 -4 -14 10 -2 10 8 12 15 5 17 -6 2 -11 9 -11 16 0 7 -9 21 -20 31 -11
10 -20 15 -20 10 0 -4 -7 -2 -15 5 -8 7 -15 9 -15 4 0 -5 -5 -2 -10 6 -7 11
-10 11 -10 2 0 -7 -5 -10 -10 -7 -6 4 -7 12 -4 18 4 7 3 9 -1 4 -13 -11 -44
23 -38 41 5 11 2 14 -9 9 -9 -3 -24 4 -37 17 -26 28 -27 36 -1 29 11 -3 17
-10 13 -16 -3 -6 -1 -7 5 -3 13 8 1 39 -20 52 -6 4 -8 3 -5 -3 4 -6 0 -14 -9
-17 -25 -9 -27 -8 -22 19 3 13 2 24 -1 23 -26 -3 -51 4 -46 12 3 6 0 10 -8 10
-19 0 -49 34 -40 45 5 4 2 5 -5 1 -8 -5 -31 10 -63 42 -28 28 -53 52 -57 54
-4 2 -6 6 -5 10 2 4 -5 4 -14 1 -10 -4 -14 -2 -9 5 3 6 -3 13 -14 17 -11 3
-20 11 -20 17 0 6 -3 9 -6 5 -3 -3 -11 -2 -18 3 -6 6 -31 25 -56 43 -25 19
-44 40 -42 46 1 7 -6 11 -15 9 -11 -2 -17 2 -15 10 1 8 -2 11 -7 8 -9 -6 -74
32 -79 46 -10 30 -16 37 -32 41 -13 3 -17 1 -13 -9 3 -8 -21 3 -53 24 -33 22
-91 58 -131 82 -40 23 -70 47 -66 53 3 6 1 7 -5 3 -13 -8 -72 23 -72 37 0 4 5
5 12 1 7 -4 8 -3 4 5 -6 8 -12 9 -20 2 -10 -9 -13 4 -15 55 -1 40 2 64 8 60
10 -6 10 12 -1 29 -9 16 -3 52 12 70 11 14 11 16 -1 13 -11 -2 -15 19 -17 111
-2 72 1 118 7 124 12 12 15 70 4 81 -4 4 -8 21 -9 38 -1 19 1 26 6 17 5 -7 10
24 12 74 2 68 0 86 -10 82 -10 -4 -12 56 -10 312 2 200 7 318 13 320 6 2 11
-15 11 -37 1 -26 -3 -37 -10 -33 -6 4 -5 0 2 -9 10 -13 10 -17 0 -20 -10 -4
-11 -8 -1 -20 7 -8 9 -19 5 -23 -4 -5 -2 -5 4 -2 7 4 11 35 10 79 l-1 73 -683
3 c-546 2 -682 0 -682 -10z m1337 -710 c-3 -8 -6 -5 -6 6 -1 11 2 17 5 13 3
-3 4 -12 1 -19z m-2693 -346 c3 -5 -1 -9 -9 -9 -8 0 -12 4 -9 9 3 4 7 8 9 8 2
0 6 -4 9 -8z m-189 -242 c-3 -5 -12 -10 -18 -10 -7 0 -6 4 3 10 19 12 23 12
15 0z m-95 -24 c0 -2 -7 -6 -15 -10 -8 -3 -15 -1 -15 4 0 6 7 10 15 10 8 0 15
-2 15 -4z m-90 -36 c-8 -5 -19 -10 -25 -10 -5 0 -3 5 5 10 8 5 20 10 25 10 6
0 3 -5 -5 -10z m-180 -70 c0 -5 -4 -10 -9 -10 -5 0 -18 -3 -28 -6 -16 -6 -16
-5 2 9 23 19 35 21 35 7z m3615 -180 c3 -5 1 -10 -4 -10 -6 0 -11 5 -11 10 0
6 2 10 4 10 3 0 8 -4 11 -10z m727 -595 c3 3 10 -1 17 -8 9 -11 6 -14 -17 -12
-18 1 -28 7 -31 20 -3 16 -1 17 11 7 8 -6 17 -10 20 -7z m304 -390 c3 -17 -12
-20 -21 -5 -7 12 4 34 13 25 3 -3 7 -12 8 -20z m-4231 -2 c-2 -10 -4 -22 -4
-26 -1 -5 -5 -5 -11 -2 -6 3 -7 -1 -4 -9 3 -8 -4 -29 -15 -45 -12 -16 -21 -34
-21 -41 0 -6 -5 -8 -12 -4 -7 4 -8 3 -4 -5 4 -6 2 -18 -4 -26 -6 -8 -9 -19 -5
-25 3 -5 1 -10 -5 -10 -6 0 -8 -5 -5 -10 3 -6 -1 -13 -9 -16 -9 -3 -13 -10
-10 -15 3 -5 0 -9 -6 -9 -7 0 -10 -7 -6 -15 3 -9 0 -15 -9 -15 -8 0 -15 -5
-15 -11 0 -5 5 -7 10 -4 6 4 -3 -17 -20 -45 -16 -28 -30 -54 -30 -58 0 -18
-38 -81 -45 -74 -5 4 -5 2 -1 -5 8 -14 -24 -84 -36 -77 -4 3 -5 -2 -2 -10 4
-10 1 -16 -7 -16 -11 0 -11 -3 1 -10 10 -6 11 -10 3 -10 -7 0 -13 -7 -13 -15
0 -10 -6 -12 -17 -8 -16 6 -16 5 -4 -10 7 -9 9 -17 3 -17 -5 0 -12 -14 -16
-31 -4 -20 -10 -28 -17 -23 -7 4 -9 3 -5 -4 3 -6 -1 -18 -10 -26 -11 -12 -12
-16 -2 -16 9 -1 7 -5 -4 -14 -10 -7 -14 -17 -10 -21 4 -5 0 -6 -8 -3 -11 4
-15 -3 -16 -30 0 -20 -6 -38 -12 -40 -7 -2 -12 -10 -12 -18 0 -8 -4 -14 -10
-14 -5 0 -7 -6 -4 -14 3 -8 0 -17 -7 -22 -8 -5 -10 -3 -4 6 5 9 4 11 -4 6 -6
-4 -9 -11 -6 -16 3 -5 -1 -23 -10 -40 -8 -16 -13 -30 -10 -30 3 0 -3 -10 -15
-22 -11 -12 -20 -32 -20 -45 0 -13 -6 -23 -13 -23 -7 0 -13 -8 -14 -17 -3 -33
-23 -74 -33 -68 -6 3 -7 -1 -4 -9 3 -9 1 -16 -5 -16 -6 0 -11 -12 -11 -26 0
-14 -4 -23 -9 -19 -6 3 -8 -4 -6 -15 2 -11 0 -20 -6 -20 -5 0 -9 -6 -9 -13 0
-7 -8 -22 -17 -33 -10 -11 -19 -26 -21 -34 -2 -8 -8 -17 -13 -18 -5 -2 -7 -8
-3 -13 3 -5 1 -9 -3 -9 -5 0 -10 -12 -11 -26 -3 -35 -33 -85 -46 -77 -6 4 -4
-2 4 -12 9 -11 10 -16 3 -11 -8 4 -13 2 -13 -4 0 -6 -5 -8 -12 -4 -10 6 -10 4
0 -8 10 -13 10 -19 -3 -31 -8 -9 -15 -20 -15 -26 0 -22 -23 -60 -33 -54 -6 4
-8 0 -4 -10 3 -9 0 -18 -9 -21 -8 -3 -14 -14 -12 -23 2 -10 -2 -17 -8 -16 -8
1 -10 -6 -6 -19 3 -14 -1 -26 -13 -34 -11 -8 -16 -14 -12 -14 4 0 3 -9 -3 -20
-7 -12 -16 -18 -23 -13 -7 4 -6 -1 2 -11 12 -14 12 -17 1 -14 -8 2 -14 -4 -15
-12 -2 -39 -18 -80 -34 -85 -12 -4 -17 -14 -15 -31 1 -15 -4 -28 -12 -31 -8
-3 -11 -9 -8 -14 3 -5 0 -9 -5 -9 -6 0 -11 -11 -11 -25 0 -14 -5 -25 -11 -25
-5 0 -8 -4 -4 -10 3 -5 -3 -18 -13 -28 -10 -10 -18 -26 -16 -35 1 -9 -4 -17
-12 -17 -9 0 -12 -4 -9 -10 3 -5 2 -10 -4 -10 -5 0 -8 -9 -6 -20 2 -11 0 -20
-6 -20 -5 0 -9 -7 -9 -16 0 -8 -4 -13 -9 -10 -5 3 -8 -2 -7 -12 0 -10 -5 -16
-13 -14 -12 3 -12 0 -2 -12 11 -13 11 -17 -2 -22 -9 -3 -13 -13 -10 -25 4 -13
0 -19 -11 -19 -10 0 -15 -4 -11 -9 3 -5 0 -15 -7 -23 -7 -7 -15 -22 -16 -33
-2 -11 -9 -23 -15 -27 -7 -4 -12 -15 -12 -25 0 -10 -6 -17 -14 -15 -12 3 -12
1 0 -14 12 -16 12 -17 -3 -12 -12 5 -16 1 -13 -18 1 -13 -2 -24 -8 -24 -5 0
-7 -9 -4 -20 3 -13 0 -20 -10 -20 -8 0 -11 -4 -8 -10 3 -6 1 -10 -4 -10 -6 0
-10 -6 -9 -12 2 -7 -2 -12 -9 -11 -7 2 -10 -3 -7 -11 7 -18 -23 -76 -39 -76
-8 0 -8 -3 2 -9 11 -7 10 -12 -8 -22 -22 -14 -30 -36 -8 -23 6 4 5 -1 -5 -12
-9 -10 -24 -39 -34 -64 -10 -25 -22 -48 -28 -52 -6 -4 -7 -8 -2 -8 5 0 1 -9
-9 -20 -10 -11 -15 -20 -11 -20 3 0 -1 -11 -10 -25 -9 -14 -13 -25 -9 -25 5 0
-5 -12 -21 -26 -16 -15 -23 -23 -16 -20 18 10 14 -5 -7 -33 -10 -14 -16 -32
-13 -40 5 -14 3 -14 -11 -3 -14 12 -16 11 -12 -8 3 -17 1 -19 -9 -11 -7 6 -12
21 -11 33 1 13 -3 32 -8 43 -6 11 -12 29 -14 40 -7 53 -17 93 -26 115 -4 8 -6
30 -3 47 2 18 0 31 -4 28 -7 -4 -11 27 -13 108 0 26 -4 47 -7 47 -7 0 -10 49
-14 185 -1 28 3 53 9 57 6 5 5 8 -3 8 -7 0 -10 5 -6 11 3 6 6 51 6 100 -1 63
3 89 11 89 8 0 8 3 2 8 -14 10 -17 32 -9 51 12 27 13 41 2 41 -7 0 -7 5 -1 13
5 6 10 28 12 47 2 19 7 37 11 40 4 3 7 22 6 43 -2 20 1 37 7 37 5 0 7 7 4 15
-4 8 -2 17 3 20 4 3 7 16 5 30 -1 14 2 28 7 31 4 3 6 9 3 14 -3 5 -1 11 4 15
5 3 8 14 6 25 -2 11 0 20 4 20 8 0 10 9 13 55 1 14 8 25 14 25 7 0 16 4 19 10
3 6 -1 7 -10 4 -13 -5 -14 -2 -6 19 5 14 7 28 4 31 -4 3 -1 6 5 6 7 0 11 3 10
8 0 4 2 14 5 22 10 26 31 105 29 113 -1 4 2 7 8 7 5 0 10 11 10 24 0 13 10 31
23 40 12 9 16 14 10 11 -16 -8 -17 7 -1 23 7 7 9 12 4 12 -4 0 0 7 8 16 9 8
14 20 11 25 -4 5 -1 9 4 9 6 0 11 7 11 16 0 8 4 12 10 9 6 -3 7 1 4 9 -3 9 -1
16 4 16 6 0 9 9 7 21 -3 17 -2 19 10 9 12 -10 13 -7 9 15 -3 15 2 32 11 41 8
9 13 20 10 25 -4 5 1 6 9 3 10 -4 14 0 12 12 -3 21 22 74 35 74 5 0 9 7 9 15
0 8 9 23 20 32 11 10 20 23 20 30 0 7 5 13 11 13 6 0 9 7 5 15 -3 9 0 15 9 15
8 0 24 18 35 39 11 22 24 43 30 46 6 4 8 11 4 16 -3 6 3 13 15 16 11 3 18 9
15 14 -3 5 -1 9 3 9 13 0 43 56 35 65 -4 5 -2 5 5 1 7 -4 18 5 27 22 8 16 22
32 31 36 9 3 13 11 9 18 -5 8 -2 9 10 5 10 -4 15 -3 11 3 -3 6 1 13 9 16 9 3
13 10 10 15 -5 8 10 13 29 10 5 -1 6 3 3 8 -5 8 95 121 108 121 4 0 21 16 38
36 18 20 37 33 45 30 8 -3 12 -2 9 3 -3 4 3 16 14 26 11 10 20 15 20 11 0 -4
7 -1 15 8 8 8 15 19 15 25 0 6 6 8 14 5 7 -3 16 2 20 11 4 10 12 15 22 11 8
-3 13 -2 10 3 -3 5 3 20 14 32 11 13 19 20 20 15 0 -6 7 -1 16 10 8 10 13 13
9 7 -4 -9 -1 -11 10 -7 9 4 14 9 11 11 -10 10 25 35 40 29 8 -3 12 -2 9 4 -3
6 1 10 10 10 9 0 13 5 10 10 -6 9 1 12 22 9 3 0 10 6 15 15 5 9 13 14 19 11 5
-4 9 -2 9 4 0 6 7 8 15 5 9 -4 15 0 15 9 0 9 5 19 12 23 7 5 8 3 3 -6 -5 -8 7
-3 26 10 19 14 36 25 39 25 3 0 4 4 2 9 -2 5 5 3 14 -5 10 -8 15 -9 11 -3 -9
15 17 36 47 38 13 0 22 3 20 5 -7 8 36 32 46 26 6 -3 10 -2 10 4 0 11 39 26
59 22 7 -1 10 2 6 8 -3 7 2 11 14 11 13 0 18 -6 16 -17z m-1655 -117 c0 -3 -4
-8 -10 -11 -5 -3 -10 -1 -10 4 0 6 5 11 10 11 6 0 10 -2 10 -4z m-40 -45 c0
-5 -7 -11 -14 -14 -10 -4 -13 -1 -9 9 6 15 23 19 23 5z m-40 -45 c0 -2 -8 -10
-17 -17 -16 -13 -17 -12 -4 4 13 16 21 21 21 13z m6335 -466 c3 -5 -1 -10 -10
-10 -9 0 -13 5 -10 10 3 6 8 10 10 10 2 0 7 -4 10 -10z m-1399 -196 c-5 -13
-4 -14 7 -5 12 9 19 2 38 -38 13 -28 25 -48 27 -46 7 7 42 -35 42 -50 0 -8 5
-15 11 -15 8 0 9 -4 0 -13 -13 -16 -5 -28 15 -20 9 3 15 -2 16 -13 0 -11 2
-24 2 -31 1 -6 5 -15 10 -20 5 -5 6 -2 1 6 -5 9 -4 12 2 8 6 -4 14 -19 18 -34
4 -16 16 -36 27 -47 12 -11 16 -21 10 -25 -7 -4 -8 -12 -2 -21 6 -8 10 -11 10
-6 0 6 6 1 14 -9 8 -11 11 -26 8 -34 -3 -9 -1 -12 6 -7 11 6 15 -5 11 -30 0
-4 5 -10 12 -15 7 -4 12 -21 12 -39 0 -20 3 -26 9 -18 7 12 12 4 9 -14 0 -5 3
-8 9 -8 6 0 10 -5 10 -11 0 -5 -6 -7 -12 -3 -9 6 -9 3 1 -9 7 -9 11 -23 8 -31
-4 -9 -1 -13 6 -10 10 4 32 -35 42 -76 1 -3 5 -13 8 -22 15 -38 15 -46 4 -57
-9 -10 -9 -12 2 -9 9 2 19 -17 30 -64 9 -36 19 -70 23 -74 4 -4 4 -12 1 -18
-11 -17 -12 -37 -2 -30 5 3 9 2 10 -3 0 -4 2 -17 5 -28 12 -56 18 -103 18
-132 0 -18 4 -29 9 -26 5 3 4 -4 -2 -15 -8 -15 -8 -22 2 -25 9 -4 8 -8 -3 -16
-11 -8 -12 -11 -2 -11 9 0 13 -11 11 -33 -2 -18 0 -37 3 -42 3 -6 4 -22 2 -37
-1 -17 2 -28 9 -28 7 0 6 -4 -3 -10 -11 -7 -11 -10 -2 -10 8 0 10 -5 6 -12
-11 -17 -12 -48 -2 -42 13 8 9 -21 -4 -35 -10 -11 -10 -13 0 -7 8 5 12 0 12
-13 0 -12 -6 -21 -12 -21 -9 0 -10 -3 -2 -8 15 -9 14 -184 0 -194 -7 -5 -7 -8
2 -8 8 0 10 -5 5 -12 -4 -7 -8 -26 -9 -43 -1 -16 -2 -36 -3 -43 -1 -8 -6 -10
-13 -6 -10 6 -10 5 -1 -7 13 -16 12 -36 -1 -58 -7 -10 -6 -12 4 -6 10 6 11 4
4 -6 -13 -21 -14 -39 -2 -39 7 0 7 -4 0 -12 -10 -13 -23 -76 -23 -110 0 -10
-5 -18 -10 -18 -6 0 -7 -4 -4 -10 3 -5 2 -10 -4 -10 -6 0 -8 -7 -5 -15 4 -8 0
-23 -7 -32 -12 -14 -12 -15 -1 -9 11 7 12 4 3 -13 -7 -11 -9 -21 -6 -21 3 0 0
-10 -6 -22 -7 -13 -14 -34 -15 -48 -2 -14 -8 -26 -13 -28 -5 -2 -8 -9 -5 -17
3 -7 0 -16 -5 -20 -6 -3 -9 -11 -5 -16 3 -6 -2 -17 -12 -25 -11 -9 -13 -13 -6
-9 6 3 2 -11 -10 -31 -12 -21 -17 -34 -10 -30 7 4 12 2 12 -3 0 -6 -3 -11 -7
-11 -5 0 -13 -11 -20 -25 -8 -19 -8 -24 0 -19 7 3 3 -2 -7 -10 -11 -9 -15 -16
-8 -16 11 0 -16 -62 -31 -68 -4 -2 -4 -8 -1 -14 3 -5 -2 -16 -12 -24 -11 -9
-13 -12 -5 -8 10 5 12 3 5 -7 -5 -8 -9 -16 -10 -19 -3 -20 -29 -58 -36 -54 -5
3 -7 2 -6 -3 1 -4 -1 -23 -5 -42 -5 -26 -11 -32 -26 -28 -14 3 -17 0 -13 -15
2 -11 -4 -31 -15 -46 -11 -15 -23 -37 -27 -50 -4 -12 -12 -20 -17 -17 -5 4 -9
1 -9 -5 0 -18 -41 -71 -50 -65 -4 3 -6 -4 -3 -15 6 -23 -6 -26 -27 -7 -12 10
-12 9 -1 -5 10 -13 10 -20 -1 -37 -16 -26 -23 -27 -25 -1 -1 13 2 18 10 13 7
-3 5 2 -4 13 -12 13 -16 35 -14 71 1 36 -1 50 -9 46 -6 -4 -5 1 3 10 11 14 11
20 0 34 -8 9 -9 14 -3 11 6 -5 10 13 10 52 -1 37 -4 56 -11 52 -5 -3 -4 2 4
11 11 14 11 20 0 34 -8 9 -9 14 -4 11 7 -4 10 45 9 145 -1 84 -3 154 -4 157
-1 3 -1 10 0 15 7 27 5 217 -2 221 -5 3 -5 11 -1 17 12 19 10 196 -2 189 -5
-3 -4 2 4 11 11 14 11 20 0 34 -8 9 -9 14 -3 11 6 -5 10 13 10 52 -1 37 -4 56
-11 52 -5 -3 -4 2 4 11 11 14 11 20 0 34 -8 9 -9 14 -4 11 7 -4 10 45 9 145
-1 84 -3 154 -4 157 -1 3 -1 10 0 15 7 27 5 217 -2 221 -5 3 -5 11 -1 17 12
19 10 196 -2 189 -5 -3 -4 2 4 11 11 14 11 20 0 34 -8 9 -9 14 -3 11 6 -5 10
13 10 52 -1 37 -4 56 -11 52 -5 -3 -4 2 4 11 11 14 11 20 0 34 -8 9 -9 14 -4
11 7 -4 10 45 9 145 -1 84 -3 154 -4 157 -1 3 -1 10 0 15 7 27 5 217 -2 221
-4 3 -4 13 0 22 5 9 8 55 6 102 -2 83 2 120 13 120 3 0 2 -7 -1 -16z m-1412
-49 c4 -14 4 -30 1 -35 -3 -5 -1 -11 5 -15 5 -3 10 -11 10 -16 0 -6 -5 -7 -12
-3 -8 5 -9 1 -4 -12 6 -15 5 -16 -5 -7 -17 17 -20 46 -6 55 9 6 9 12 0 28 -15
23 -16 30 -4 30 5 0 12 -11 15 -25z m2396 -5 c0 -5 -2 -10 -4 -10 -3 0 -8 5
-11 10 -3 6 -1 10 4 10 6 0 11 -4 11 -10z m43 -100 c3 -11 1 -18 -4 -14 -5 3
-9 12 -9 20 0 20 7 17 13 -6z m65 -165 c-3 -3 -9 2 -12 12 -6 14 -5 15 5 6 7
-7 10 -15 7 -18z m-7134 -20 c-4 -8 -8 -15 -10 -15 -2 0 -4 7 -4 15 0 8 4 15
10 15 5 0 7 -7 4 -15z m4107 -318 c-6 -6 -7 -17 -2 -26 5 -9 7 -26 6 -38 -1
-13 3 -23 9 -23 6 0 4 -4 -4 -10 -8 -5 -11 -12 -7 -16 4 -4 2 -13 -4 -20 -7
-8 -7 -14 1 -19 5 -3 10 -11 10 -16 0 -6 -5 -7 -12 -3 -7 5 -8 3 -2 -7 5 -8 9
-125 9 -261 0 -211 -2 -249 -15 -255 -8 -3 -58 -7 -110 -8 -52 0 -100 -4 -107
-8 -7 -4 -16 0 -22 10 -6 11 -11 13 -11 5 0 -9 -5 -10 -19 -3 -10 6 -20 8 -23
6 -2 -2 -4 4 -4 15 0 10 3 17 7 15 3 -3 11 14 18 35 6 22 16 40 21 40 6 0 10
5 10 11 0 5 -4 7 -10 4 -6 -3 -7 1 -4 9 3 9 10 13 15 10 5 -3 12 14 15 36 4
23 13 48 21 56 8 7 11 18 8 24 -3 5 -2 10 4 10 5 0 13 9 16 20 4 11 10 18 15
15 5 -3 12 -1 15 5 4 6 1 9 -7 8 -7 -2 -13 4 -13 12 0 8 7 14 15 12 8 -2 12 0
8 4 -4 4 -2 14 5 22 10 13 9 14 -1 8 -9 -6 -8 3 4 25 10 19 19 40 20 48 2 7 8
19 15 25 9 8 10 8 5 -1 -4 -7 -3 -13 3 -13 6 0 8 12 4 32 -5 28 -4 31 13 24
14 -5 16 -4 8 4 -12 12 3 60 19 60 5 0 5 5 2 10 -3 6 -1 10 4 10 6 0 10 3 10
8 -4 17 15 73 27 83 8 6 11 16 7 22 -4 6 -1 7 6 2 9 -5 10 -10 2 -18z m-934
-109 c-3 -8 -6 -5 -6 6 -1 11 2 17 5 13 3 -3 4 -12 1 -19z m-3302 -47 c3 -5 2
-12 -3 -15 -5 -3 -9 1 -9 9 0 17 3 19 12 6z m3270 -40 c-3 -12 -11 -19 -16
-16 -5 4 -3 14 3 25 15 24 22 19 13 -9z m-22 -51 c-3 -11 -7 -20 -9 -20 -2 0
-4 9 -4 20 0 11 4 20 9 20 5 0 7 -9 4 -20z m-36 -62 c-3 -8 -6 -5 -6 6 -1 11
2 17 5 13 3 -3 4 -12 1 -19z m4700 -240 c-3 -8 -6 -5 -6 6 -1 11 2 17 5 13 3
-3 4 -12 1 -19z m-5137 -32 c0 -2 -7 -7 -16 -10 -8 -3 -12 -2 -9 4 6 10 25 14
25 6z m-2790 -585 c0 -27 3 -56 6 -65 4 -10 1 -16 -7 -16 -10 0 -14 17 -14 65
0 36 3 65 8 65 4 0 7 -22 7 -49z m2925 -31 c3 -6 -1 -7 -9 -4 -18 7 -21 14 -7
14 6 0 13 -4 16 -10z m1039 -1422 c-2 -4 1 -10 7 -14 8 -4 9 -3 5 4 -9 15 -17
14 137 16 71 0 131 -2 133 -6 3 -4 12 -4 22 -1 9 3 14 3 10 -2 -4 -4 -3 -14 3
-22 12 -13 15 -86 5 -102 -4 -5 -1 -11 6 -13 7 -3 8 -9 3 -19 -12 -18 -12 -52
-1 -60 5 -4 5 -13 0 -20 -10 -17 -12 -59 -1 -59 4 0 3 -10 -4 -21 -8 -16 -8
-20 1 -14 9 6 9 2 1 -14 -8 -15 -9 -21 -1 -21 6 0 8 -5 4 -12 -12 -20 -14 -58
-2 -58 6 0 5 -6 -3 -16 -10 -13 -10 -17 2 -25 12 -7 12 -9 -1 -9 -9 0 -11 -3
-5 -8 13 -9 18 -35 5 -27 -5 3 -10 2 -10 -4 0 -5 5 -13 10 -16 6 -4 7 -12 3
-18 -10 -17 -11 -47 -1 -47 5 0 6 -4 3 -10 -10 -16 -15 -50 -7 -50 7 0 8 -11
14 -87 2 -17 4 -30 6 -28 6 5 41 -28 37 -35 -2 -3 4 -7 13 -8 74 -9 102 -16
102 -24 0 -6 6 -5 15 2 9 7 15 8 15 2 0 -11 18 -11 38 1 7 5 12 3 12 -4 0 -10
3 -10 11 -2 7 7 20 8 34 3 12 -4 28 -4 35 0 8 5 21 5 31 0 9 -5 19 -7 22 -4 5
5 60 6 132 3 17 -1 32 0 35 1 22 8 52 4 62 -9 7 -9 9 -13 4 -9 -5 4 -18 2 -30
-4 -11 -7 -24 -11 -28 -10 -5 1 -8 -2 -8 -8 0 -5 -13 -10 -29 -10 -16 0 -36
-6 -43 -13 -15 -16 -113 -48 -151 -50 -14 -1 -23 -5 -20 -9 2 -5 -1 -8 -6 -8
-6 0 -11 6 -11 13 0 8 -3 8 -9 -2 -5 -8 -23 -14 -40 -15 -17 0 -33 -6 -35 -13
-3 -7 -16 -10 -30 -7 -14 2 -28 0 -31 -6 -4 -6 -31 -10 -60 -9 -36 1 -52 6
-48 13 5 8 3 8 -8 0 -22 -17 -59 -24 -59 -11 0 7 -5 5 -10 -3 -5 -8 -10 -12
-10 -9 0 4 -16 3 -35 -1 -21 -5 -35 -4 -35 2 0 5 -5 6 -12 2 -18 -11 -58 -11
-58 0 0 6 -5 5 -12 -2 -16 -16 -31 -15 -22 1 6 9 5 9 -7 0 -12 -10 -18 -10
-29 0 -9 8 -11 8 -6 0 7 -12 -62 -12 -83 1 -6 4 -11 1 -11 -6 0 -8 -3 -9 -8
-3 -7 10 -19 11 -149 16 -44 1 -73 7 -73 13 0 6 -4 5 -9 -2 -10 -17 -42 -12
-59 8 -10 13 -11 12 -5 -4 5 -15 3 -17 -8 -11 -7 5 -28 9 -46 8 -20 0 -30 4
-26 10 4 6 0 8 -10 4 -10 -4 -17 -1 -17 6 0 7 -6 3 -12 -7 -9 -16 -13 -17 -22
-5 -6 8 -24 14 -41 15 -46 1 -101 11 -116 19 -6 5 -27 8 -46 7 -18 -1 -33 2
-33 6 0 4 -8 8 -17 9 -10 1 -31 3 -48 6 -16 3 -36 5 -43 6 -7 0 -11 5 -8 10 4
5 -3 7 -14 4 -11 -3 -20 -1 -20 5 0 6 -8 9 -17 8 -10 -2 -36 3 -58 11 -22 8
-44 16 -50 17 -13 3 -89 40 -95 46 -3 3 -14 7 -25 8 -22 4 -64 32 -50 33 6 1
-1 4 -15 8 -14 4 -24 14 -24 23 1 11 -4 14 -13 11 -13 -5 -13 -2 -4 16 7 12
10 25 7 29 -7 11 70 103 78 95 3 -4 7 -1 7 5 4 33 6 37 19 34 11 -2 11 0 1 11
-9 12 -8 16 3 20 8 3 16 21 18 39 2 18 8 32 14 31 7 -1 10 6 7 18 -3 12 -1 24
5 28 6 3 13 18 15 31 8 42 19 60 30 53 6 -4 8 0 4 9 -3 9 0 21 6 28 9 10 9 11
-3 5 -13 -8 -13 -6 -1 8 7 9 18 14 23 11 6 -4 6 1 0 13 -8 15 -6 26 9 49 10
16 19 37 19 46 0 9 6 23 13 30 6 7 13 24 15 38 2 14 11 31 20 38 9 7 17 16 16
20 -1 4 4 15 10 25 12 19 51 24 41 5 -3 -7 -1 -6 5 2 10 13 69 15 425 15 227
0 411 -3 409 -7z m-2094 -202 c0 -3 -4 -8 -10 -11 -5 -3 -10 -1 -10 4 0 6 5
11 10 11 6 0 10 -2 10 -4z m-20 -55 c0 -5 -7 -11 -15 -15 -15 -5 -20 5 -8 17
9 10 23 9 23 -2z m-20 -35 c0 -3 -4 -8 -10 -11 -5 -3 -10 -1 -10 4 0 6 5 11
10 11 6 0 10 -2 10 -4z m-25 -46 c3 -5 1 -10 -4 -10 -6 0 -11 5 -11 10 0 6 2
10 4 10 3 0 8 -4 11 -10z m3882 -1472 c-3 -8 -6 -5 -6 6 -1 11 2 17 5 13 3 -3
4 -12 1 -19z"/>
<path d="M2966 6102 c-3 -5 1 -9 9 -9 8 0 12 4 9 9 -3 4 -7 8 -9 8 -2 0 -6 -4
-9 -8z"/>
<path d="M2250 5300 c0 -5 5 -10 11 -10 5 0 7 5 4 10 -3 6 -8 10 -11 10 -2 0
-4 -4 -4 -10z"/>
<path d="M7073 4845 c0 -8 4 -12 9 -9 5 3 6 10 3 15 -9 13 -12 11 -12 -6z"/>
<path d="M3510 1400 c0 -5 5 -10 11 -10 5 0 7 5 4 10 -3 6 -8 10 -11 10 -2 0
-4 -4 -4 -10z"/>
<path d="M4805 8820 c6 -30 16 -40 12 -12 -2 12 -6 24 -10 28 -3 4 -4 -4 -2
-16z"/>
<path d="M4869 8835 c-5 -20 -3 -31 9 -35 10 -4 9 -10 -3 -25 -9 -11 -14 -15
-11 -9 3 6 -1 11 -9 11 -13 0 -13 -26 0 -47 4 -6 -1 -7 -11 -3 -11 4 -15 2
-13 -6 8 -24 24 -14 46 29 14 27 19 48 14 53 -5 5 -7 16 -4 23 3 8 0 14 -6 14
-6 0 -12 -2 -12 -5z"/>
<path d="M4804 8671 c0 -17 5 -32 11 -34 13 -6 12 40 -1 53 -7 7 -10 0 -10
-19z"/>
<path d="M4701 8462 c-1 -7 -5 -11 -10 -7 -6 3 -8 -4 -6 -16 5 -25 15 -38 15
-20 0 7 5 9 13 5 6 -4 9 -3 4 1 -4 5 1 18 10 29 15 17 15 18 1 8 -13 -10 -17
-10 -21 0 -4 11 -6 10 -6 0z"/>
<path d="M6385 8415 c2 -14 -1 -27 -6 -31 -10 -6 -3 -24 10 -24 10 0 9 65 0
75 -4 3 -5 -6 -4 -20z"/>
<path d="M4644 8348 c0 -15 3 -28 7 -28 4 0 9 13 11 28 2 17 -1 29 -7 29 -6 0
-11 -13 -11 -29z"/>
<path d="M4684 8355 c-10 -8 -14 -15 -8 -15 6 0 17 7 24 15 16 19 9 19 -16 0z"/>
<path d="M4643 8275 c0 -8 4 -15 9 -15 4 0 8 4 8 9 0 6 -4 12 -8 15 -5 3 -9
-1 -9 -9z"/>
<path d="M3206 7851 c9 -9 54 -12 54 -4 0 5 -13 8 -30 8 -16 1 -27 -1 -24 -4z"/>
<path d="M2506 7548 c3 -4 19 -8 35 -8 18 0 28 4 24 10 -4 6 -19 9 -35 8 -16
-1 -26 -6 -24 -10z"/>
<path d="M6460 7554 c0 -5 13 -20 28 -31 l29 -21 -2 21 c-1 15 -8 22 -21 22
-10 -1 -22 4 -26 10 -5 7 -8 7 -8 -1z"/>
<path d="M6666 7551 c9 -9 43 -11 48 -2 3 5 -7 8 -23 7 -16 0 -28 -3 -25 -5z"/>
<path d="M2405 7510 c-3 -6 1 -7 9 -4 18 7 21 14 7 14 -6 0 -13 -4 -16 -10z"/>
<path d="M6633 7478 c-16 -19 23 -46 41 -28 8 8 6 9 -9 4 -18 -7 -19 -6 -5 11
8 10 10 16 3 12 -6 -4 -13 -2 -15 4 -2 7 -8 7 -15 -3z"/>
<path d="M6586 7467 c3 -10 9 -15 12 -12 3 3 0 11 -7 18 -10 9 -11 8 -5 -6z"/>
<path d="M2237 7389 c7 -7 15 -10 18 -7 3 3 -2 9 -12 12 -14 6 -15 5 -6 -5z"/>
<path d="M6763 7384 c0 -9 4 -11 12 -4 7 5 14 9 16 7 2 -1 3 0 1 2 -7 11 -29
7 -29 -5z"/>
<path d="M2187 7379 c7 -7 15 -10 18 -7 3 3 -2 9 -12 12 -14 6 -15 5 -6 -5z"/>
<path d="M6810 7366 c0 -2 8 -10 18 -17 15 -13 16 -12 3 4 -13 16 -21 21 -21
13z"/>
<path d="M6781 7343 c-1 -17 16 -25 25 -12 4 7 3 9 -4 5 -5 -3 -13 0 -15 6 -4
9 -6 10 -6 1z"/>
<path d="M2035 7229 c-3 -4 2 -6 10 -5 21 3 28 13 10 13 -9 0 -18 -4 -20 -8z"/>
<path d="M6930 7235 c0 -1 6 -8 14 -14 10 -8 16 -8 24 1 8 10 4 13 -14 14 -13
1 -24 1 -24 -1z"/>
<path d="M7025 7230 c-3 -5 -1 -10 4 -10 6 0 11 5 11 10 0 6 -2 10 -4 10 -3 0
-8 -4 -11 -10z"/>
<path d="M7176 7219 c21 -23 23 -23 20 -2 -2 9 -11 17 -20 19 -17 2 -17 2 0
-17z"/>
<path d="M2007 7203 c-11 -11 -8 -20 7 -20 8 0 12 6 9 14 -6 15 -7 15 -16 6z"/>
<path d="M1923 7185 c0 -8 4 -12 9 -9 5 3 6 10 3 15 -9 13 -12 11 -12 -6z"/>
<path d="M7070 7116 c0 -2 7 -7 16 -10 8 -3 12 -2 9 4 -6 10 -25 14 -25 6z"/>
<path d="M7166 7073 c11 -10 20 -28 18 -39 -2 -14 5 -23 26 -31 27 -10 29 -10
20 7 -6 11 -16 23 -23 27 -6 4 -12 15 -12 23 0 8 -4 15 -10 15 -5 0 -17 4 -25
8 -8 5 -6 0 6 -10z m49 -53 c3 -6 -1 -7 -9 -4 -18 7 -21 14 -7 14 6 0 13 -4
16 -10z"/>
<path d="M1760 7071 c0 -5 9 -11 21 -14 16 -4 18 -3 8 9 -13 16 -29 19 -29 5z"/>
<path d="M1806 7069 c4 -8 30 -6 38 2 3 3 -5 5 -19 5 -13 0 -22 -3 -19 -7z"/>
<path d="M7265 7069 c-4 -5 2 -6 11 -2 12 4 15 3 10 -5 -10 -16 -1 -15 12 1 8
10 6 13 -8 14 -11 1 -22 -2 -25 -8z"/>
<path d="M1766 7032 c-3 -5 1 -9 9 -9 8 0 12 4 9 9 -3 4 -7 8 -9 8 -2 0 -6 -4
-9 -8z"/>
<path d="M7347 7013 c-4 -3 -7 -13 -7 -21 0 -18 13 -7 16 13 2 17 1 18 -9 8z"/>
<path d="M1760 6991 c0 -6 5 -13 10 -16 6 -3 10 1 10 9 0 9 -4 16 -10 16 -5 0
-10 -4 -10 -9z"/>
<path d="M7374 6875 c-18 -15 -24 -24 -16 -29 7 -4 12 -4 12 0 0 3 11 -1 25
-10 23 -15 24 -15 18 1 -5 11 -3 14 6 8 10 -6 11 -3 2 12 -6 13 -7 23 0 30 20
20 -20 10 -47 -12z m33 -7 c2 -17 0 -19 -7 -8 -5 8 -6 18 -4 22 8 12 10 10 11
-14z"/>
<path d="M1640 6870 c0 -5 4 -10 9 -10 6 0 13 5 16 10 3 6 -1 10 -9 10 -9 0
-16 -4 -16 -10z"/>
<path d="M7509 6858 c-5 -19 -8 -50 -4 -46 7 7 15 48 9 48 -2 0 -4 -1 -5 -2z"/>
<path d="M1535 6750 c3 -5 10 -10 16 -10 5 0 9 5 9 10 0 6 -7 10 -16 10 -8 0
-12 -4 -9 -10z"/>
<path d="M7653 6749 c9 -6 14 -16 11 -22 -4 -7 -3 -8 1 -4 17 15 12 33 -9 34
-19 2 -19 1 -3 -8z"/>
<path d="M7505 6714 c-12 -12 -13 -19 -4 -30 15 -19 23 -18 15 2 -4 9 -1 23 5
30 16 19 4 18 -16 -2z"/>
<path d="M1490 6710 c-9 -6 -10 -10 -3 -10 6 0 15 5 18 10 8 12 4 12 -15 0z"/>
<path d="M1447 6665 c-4 -8 -3 -16 1 -19 4 -3 9 4 9 15 2 23 -3 25 -10 4z"/>
<path d="M7656 6553 c-6 -14 -5 -15 5 -6 7 7 10 15 7 18 -3 3 -9 -2 -12 -12z"/>
<path d="M1290 6560 c-8 -26 -7 -41 2 -32 6 6 8 16 5 24 -3 7 -6 11 -7 8z"/>
<path d="M1343 6542 c0 -10 9 -18 18 -18 14 0 15 4 8 18 -5 10 -14 18 -19 18
-5 0 -8 -8 -7 -18z"/>
<path d="M1282 6470 c-2 -31 12 -41 22 -15 6 16 -2 45 -13 45 -4 0 -8 -13 -9
-30z"/>
<path d="M7666 6485 c4 -8 8 -15 10 -15 2 0 4 7 4 15 0 8 -4 15 -10 15 -5 0
-7 -7 -4 -15z"/>
<path d="M7824 6410 c3 -42 11 -45 13 -4 1 19 -2 34 -7 34 -5 0 -7 -13 -6 -30z"/>
<path d="M1123 6232 c1 -14 5 -18 11 -12 7 7 6 14 -1 21 -9 9 -12 7 -10 -9z"/>
<path d="M7963 6127 c-4 -6 -1 -7 7 -2 10 6 12 4 7 -8 -3 -9 -2 -19 3 -22 6
-4 10 -13 10 -22 0 -9 -3 -13 -7 -10 -3 4 -12 2 -20 -4 -10 -9 -10 -15 -2 -25
6 -8 17 -14 23 -14 6 0 3 5 -7 11 -9 6 -15 15 -11 20 4 7 10 6 18 0 10 -8 13
0 12 37 0 34 -4 49 -13 49 -8 0 -17 -5 -20 -10z"/>
<path d="M996 6108 c3 -5 9 -7 12 -4 3 3 12 0 21 -6 13 -10 14 -10 4 2 -15 16
-46 23 -37 8z"/>
<path d="M1025 6072 c3 -3 1 -10 -5 -16 -6 -8 -2 -12 13 -13 17 -2 19 0 7 7
-10 7 -11 10 -2 10 6 0 12 4 12 8 0 5 -7 9 -15 9 -8 0 -13 -3 -10 -5z"/>
<path d="M966 5972 c-2 -4 -1 -14 5 -22 7 -12 9 -10 9 8 0 23 -5 28 -14 14z"/>
<path d="M8149 5958 c-6 -20 -6 -39 0 -42 4 -3 7 6 7 20 0 20 -4 32 -7 22z"/>
<path d="M8050 5925 c-7 -47 -8 -58 -4 -47 3 6 10 12 15 12 6 0 8 -4 4 -9 -3
-5 0 -13 6 -17 8 -4 9 -3 5 4 -4 7 -2 12 5 12 9 0 7 4 -3 13 -9 6 -18 19 -21
27 -3 8 -6 11 -7 5z"/>
<path d="M905 5800 c-3 -5 -1 -10 4 -10 6 0 11 5 11 10 0 6 -2 10 -4 10 -3 0
-8 -4 -11 -10z"/>
<path d="M826 5792 c-3 -6 -1 -14 5 -17 15 -10 25 3 12 16 -7 7 -13 7 -17 1z"/>
<path d="M809 5748 c-7 -24 -4 -40 9 -50 15 -11 15 -11 6 2 -6 8 -10 23 -9 33
3 13 -2 26 -6 15z"/>
<path d="M824 5652 c18 -21 29 -23 27 -5 -1 4 -4 8 -8 8 -5 0 -15 4 -23 9 -9
6 -7 1 4 -12z"/>
<path d="M8220 5631 c0 -3 14 -7 30 -7 17 -1 30 1 30 5 0 3 -13 7 -30 7 -16 1
-30 -1 -30 -5z"/>
<path d="M8172 5590 c7 -10 14 -18 15 -16 6 6 -9 36 -18 36 -5 0 -4 -9 3 -20z"/>
<path d="M800 5589 c0 -5 5 -7 10 -4 6 3 10 8 10 11 0 2 -4 4 -10 4 -5 0 -10
-5 -10 -11z"/>
<path d="M8304 5550 c0 -32 8 -32 13 0 1 10 -1 21 -5 24 -5 3 -8 -8 -8 -24z"/>
<path d="M8218 5536 c10 -16 9 -30 -3 -39 -6 -4 -1 -10 13 -13 12 -4 22 -11
22 -17 0 -6 3 -7 6 -4 4 4 0 17 -8 29 -8 13 -14 30 -13 39 2 9 -3 16 -11 16
-7 0 -10 -5 -6 -11z"/>
<path d="M644 5466 c1 -8 5 -18 8 -22 4 -3 5 1 4 10 -1 8 -5 18 -8 22 -4 3 -5
-1 -4 -10z"/>
<path d="M703 5469 c9 -6 14 -15 11 -21 -4 -7 -2 -8 5 -4 14 9 -3 36 -23 36
-6 0 -3 -5 7 -11z"/>
<path d="M8279 5467 c6 -8 7 -18 3 -22 -4 -5 -1 -5 6 -1 18 10 15 36 -4 36
-13 0 -14 -3 -5 -13z"/>
<path d="M8304 5285 c0 -19 2 -32 5 -29 8 8 10 64 2 64 -4 0 -7 -16 -7 -35z"/>
<path d="M8403 5032 c2 -12 6 -24 10 -28 3 -4 4 4 2 16 -6 30 -16 40 -12 12z"/>
<path d="M8465 4993 c3 -3 0 -11 -5 -18 -7 -8 -5 -12 4 -12 14 0 16 22 3 32
-4 3 -5 2 -2 -2z"/>
<path d="M8440 4829 c-13 -9 -12 -10 3 -5 11 3 17 0 17 -9 0 -8 4 -15 9 -15 6
0 9 9 8 20 -1 22 -14 25 -37 9z"/>
<path d="M8435 4750 c-3 -5 -1 -10 4 -10 6 0 11 5 11 10 0 6 -2 10 -4 10 -3 0
-8 -4 -11 -10z"/>
<path d="M484 4706 c1 -8 5 -18 8 -22 4 -3 5 1 4 10 -1 8 -5 18 -8 22 -4 3 -5
-1 -4 -10z"/>
<path d="M8442 4630 c0 -14 2 -19 5 -12 2 6 2 18 0 25 -3 6 -5 1 -5 -13z"/>
<path d="M8529 4293 c-9 -11 -10 -14 -1 -9 7 4 12 1 12 -8 0 -9 6 -15 13 -13
6 1 11 -4 10 -10 -2 -7 1 -13 6 -13 15 0 8 39 -10 56 -14 13 -18 13 -30 -3z
m32 -10 c13 -16 12 -17 -3 -4 -17 13 -22 21 -14 21 2 0 10 -8 17 -17z"/>
<path d="M501 4244 c0 -11 3 -14 6 -6 3 7 2 16 -1 19 -3 4 -6 -2 -5 -13z"/>
<path d="M501 4164 c0 -11 3 -14 6 -6 3 7 2 16 -1 19 -3 4 -6 -2 -5 -13z"/>
<path d="M498 4123 c-2 -10 -1 -36 3 -58 6 -37 6 -36 8 18 1 57 -3 73 -11 40z"/>
<path d="M8586 4016 c2 -14 0 -28 -6 -31 -6 -4 -7 -12 -3 -18 4 -7 8 -62 8
-124 0 -61 3 -114 6 -117 3 -3 4 42 4 99 -1 71 2 102 9 98 8 -5 8 -2 0 8 -6 8
-10 33 -9 57 1 23 -2 45 -6 48 -4 2 -6 -7 -3 -20z"/>
<path d="M8625 3805 c0 -40 3 -76 5 -79 3 -3 5 28 5 69 0 40 -3 76 -5 79 -3 3
-5 -28 -5 -69z"/>
<path d="M8542 3740 c0 -19 2 -27 5 -17 2 9 2 25 0 35 -3 9 -5 1 -5 -18z"/>
<path d="M500 3500 c0 -5 5 -10 11 -10 5 0 7 5 4 10 -3 6 -8 10 -11 10 -2 0
-4 -4 -4 -10z"/>
<path d="M8441 3494 c0 -11 3 -14 6 -6 3 7 2 16 -1 19 -3 4 -6 -2 -5 -13z"/>
<path d="M510 3470 c0 -5 5 -10 11 -10 5 0 7 5 4 10 -3 6 -8 10 -11 10 -2 0
-4 -4 -4 -10z"/>
<path d="M8429 3393 c-13 -16 -12 -17 4 -4 16 13 21 21 13 21 -2 0 -10 -8 -17
-17z"/>
<path d="M568 3253 c6 -2 9 -10 6 -15 -4 -7 -2 -8 5 -4 13 9 5 26 -12 25 -9 0
-8 -2 1 -6z"/>
<path d="M8434 3232 c4 -3 14 -7 22 -8 9 -1 13 0 10 4 -4 3 -14 7 -22 8 -9 1
-13 0 -10 -4z"/>
<path d="M8387 3163 c-4 -3 -7 -11 -7 -17 0 -6 5 -5 12 2 6 6 9 14 7 17 -3 3
-9 2 -12 -2z"/>
<path d="M8469 3138 c-4 -12 -5 -57 0 -53 6 6 10 55 4 55 -1 0 -3 -1 -4 -2z"/>
<path d="M8307 2926 c-4 -10 -5 -21 -2 -24 9 -9 17 6 13 25 -3 17 -4 17 -11
-1z"/>
<path d="M665 2781 c2 -15 7 -17 36 -12 19 2 4 24 -18 26 -14 1 -20 -4 -18
-14z"/>
<path d="M8264 2781 c0 -10 5 -18 11 -18 7 0 12 6 12 13 0 7 -5 15 -12 17 -6
3 -11 -3 -11 -12z"/>
<path d="M8304 2636 c0 -19 4 -32 9 -29 4 2 5 16 3 30 -7 38 -14 38 -12 -1z"/>
<path d="M756 2633 c-6 -14 -5 -15 5 -6 7 7 10 15 7 18 -3 3 -9 -2 -12 -12z"/>
<path d="M8203 2615 c0 -6 8 -11 18 -11 9 0 15 5 12 11 -2 7 -10 12 -17 12 -7
0 -13 -5 -13 -12z"/>
<path d="M803 2470 c4 -28 37 -41 37 -15 0 15 -2 16 -17 4 -9 -8 -14 -9 -11
-4 4 6 2 17 -3 25 -7 11 -8 8 -6 -10z"/>
<path d="M8126 2451 c-3 -5 1 -11 9 -15 8 -3 15 -1 15 4 0 13 -18 22 -24 11z"/>
<path d="M8102 2325 c2 -15 -2 -19 -17 -18 -11 1 -14 0 -7 -3 6 -3 10 -9 7
-14 -3 -5 2 -7 12 -6 19 3 25 27 12 47 -8 11 -9 9 -7 -6z"/>
<path d="M8136 2288 c3 -5 10 -6 15 -3 13 9 11 12 -6 12 -8 0 -12 -4 -9 -9z"/>
<path d="M980 2125 c-11 -13 -10 -14 4 -9 9 3 16 10 16 15 0 13 -6 11 -20 -6z"/>
<path d="M7935 2060 c-16 -7 -17 -9 -3 -9 9 -1 20 4 23 9 7 11 7 11 -20 0z"/>
<path d="M7905 2010 c-23 -24 -26 -33 -16 -43 10 -9 11 -9 6 4 -4 11 3 24 21
38 15 12 25 23 22 26 -2 3 -17 -9 -33 -25z"/>
<path d="M1010 2026 c0 -2 8 -10 18 -17 15 -13 16 -12 3 4 -13 16 -21 21 -21
13z"/>
<path d="M7932 1980 c7 -11 16 -20 20 -20 15 0 8 15 -12 28 -19 12 -20 11 -8
-8z"/>
<path d="M1027 1983 c-9 -2 -15 -9 -12 -14 10 -15 32 -10 32 6 0 8 -1 14 -1
14 -1 -1 -9 -3 -19 -6z"/>
<path d="M965 1970 c-3 -5 -1 -10 4 -10 6 0 11 5 11 10 0 6 -2 10 -4 10 -3 0
-8 -4 -11 -10z"/>
<path d="M7789 1832 c-13 -15 -12 -16 3 -4 13 10 17 10 21 0 4 -9 6 -9 6 -1 2
20 -16 24 -30 5z"/>
<path d="M1135 1820 c-8 -13 15 -24 27 -12 6 6 4 11 -6 15 -8 3 -18 2 -21 -3z"/>
<path d="M1285 1650 c3 -5 8 -10 11 -10 2 0 4 5 4 10 0 6 -5 10 -11 10 -5 0
-7 -4 -4 -10z"/>
<path d="M7470 1399 c0 -5 5 -7 10 -4 6 3 10 8 10 11 0 2 -4 4 -10 4 -5 0 -10
-5 -10 -11z"/>
<path d="M1280 1326 c0 -2 8 -10 18 -17 15 -13 16 -12 3 4 -13 16 -21 21 -21
13z"/>
<path d="M1176 1077 c3 -10 9 -15 12 -12 3 3 0 11 -7 18 -10 9 -11 8 -5 -6z"/>
<path d="M7180 1070 c-9 -6 -10 -10 -3 -10 6 0 15 5 18 10 8 12 4 12 -15 0z"/>
<path d="M1145 999 c-4 -6 -5 -12 -2 -15 2 -3 7 2 10 11 7 17 1 20 -8 4z"/>
<path d="M998 831 c8 -5 13 -12 12 -17 -1 -5 3 -10 9 -12 5 -2 9 5 8 15 0 11
-9 20 -21 21 -15 1 -17 -1 -8 -7z"/>
<path d="M6955 790 c-3 -5 -1 -10 4 -10 6 0 11 5 11 10 0 6 -2 10 -4 10 -3 0
-8 -4 -11 -10z"/>
<path d="M1016 745 c-3 -9 -6 -22 -5 -28 0 -7 5 -1 10 12 5 13 8 26 5 28 -2 2
-6 -3 -10 -12z"/>
<path d="M971 724 c0 -11 3 -14 6 -6 3 7 2 16 -1 19 -3 4 -6 -2 -5 -13z"/>
<path d="M6866 688 c7 -10 34 -10 34 0 0 4 -9 8 -19 8 -11 0 -17 -4 -15 -8z"/>
<path d="M963 675 c0 -8 4 -12 9 -9 5 3 6 10 3 15 -9 13 -12 11 -12 -6z"/>
<path d="M6700 529 c0 -5 5 -7 10 -4 6 3 10 8 10 11 0 2 -4 4 -10 4 -5 0 -10
-5 -10 -11z"/>
<path d="M900 510 c0 -5 5 -10 10 -10 6 0 10 5 10 10 0 6 -4 10 -10 10 -5 0
-10 -4 -10 -10z"/>
<path d="M890 480 c0 -5 5 -10 11 -10 5 0 7 5 4 10 -3 6 -8 10 -11 10 -2 0 -4
-4 -4 -10z"/>
<path d="M856 435 c4 -8 11 -15 16 -15 6 0 5 6 -2 15 -7 8 -14 15 -16 15 -2 0
-1 -7 2 -15z"/>
<path d="M2720 430 c0 -5 5 -10 10 -10 6 0 10 5 10 10 0 6 -4 10 -10 10 -5 0
-10 -4 -10 -10z"/>
<path d="M6200 370 c0 -5 7 -10 15 -10 8 0 15 5 15 10 0 6 -7 10 -15 10 -8 0
-15 -4 -15 -10z"/>
<path d="M5900 246 c0 -8 4 -17 9 -21 6 -3 9 4 8 15 -1 23 -17 28 -17 6z"/>
<path d="M5810 221 c0 -5 5 -13 10 -16 6 -3 10 -2 10 4 0 5 -4 13 -10 16 -5 3
-10 2 -10 -4z"/>
<path d="M5770 206 c7 -7 13 -7 20 0 6 6 3 10 -10 10 -13 0 -16 -4 -10 -10z"/>
<path d="M5870 216 c0 -2 7 -7 16 -10 8 -3 12 -2 9 4 -6 10 -25 14 -25 6z"/>
<path d="M3680 60 c0 -15 6 -19 24 -18 17 2 22 6 16 14 -6 6 -7 14 -3 17 3 4
-3 7 -15 7 -15 0 -22 -6 -22 -20z m25 0 c3 -5 1 -10 -4 -10 -6 0 -11 5 -11 10
0 6 2 10 4 10 3 0 8 -4 11 -10z"/>
<path d="M5420 69 c0 -5 5 -7 10 -4 6 3 10 8 10 11 0 2 -4 4 -10 4 -5 0 -10
-5 -10 -11z"/>
<path d="M5280 50 c0 -5 7 -10 15 -10 8 0 15 5 15 10 0 6 -7 10 -15 10 -8 0
-15 -4 -15 -10z"/>
<path d="M649 38 c-7 -23 -4 -35 7 -35 10 0 11 4 3 13 -7 8 -6 14 3 17 10 4
10 6 1 6 -7 1 -13 0 -14 -1z"/>
</g>
</svg>
